<?xml version="1.0" encoding="utf-8"?>
<!-- Generator: Adobe Illustrator 19.0.0, SVG Export Plug-In . SVG Version: 6.00 Build 0)  -->
<svg version="1.1" id="Layer_1" xmlns="http://www.w3.org/2000/svg" xmlns:xlink="http://www.w3.org/1999/xlink" x="0px" y="0px"
	 viewBox="-451 212.9 376.1 376.1" style="enable-background:new -451 212.9 376.1 376.1;" xml:space="preserve">
<style type="text/css">
	.st0{fill:#B2B2B2;}
	.st1{fill:#515151;}
</style>
<rect x="-251.8" y="287" transform="matrix(0.7071 0.7071 -0.7071 0.7071 185.6705 253.0869)" class="st0" width="78.3" height="127.3"/>
<ellipse transform="matrix(0.7071 -0.7071 0.7071 0.7071 -253.5405 -24.0642)" class="st0" cx="-155.8" cy="294" rx="66" ry="94"/>
<g>
	<path class="st1" d="M-112.9,305.9l-23.7-1l-1.1-26.7l23.7,0.9L-112.9,305.9z M-111.6,338.7l-1-26l-24.5-1l1,25.9L-111.6,338.7z
		 M-199.9,301.7l25,1l-0.9-21.9l-25-1L-199.9,301.7z M-140,242.5l1,1l1.1,27.9l27.9,1.1l2.8,2.8l1.2,30.9l29.9,1.2
		c-3.6-20.4-14.9-42-33.1-60.1c-19-19-41.7-30.4-62.8-33.4l1.1,27.5L-140,242.5z M-143.1,337.5l-1.1-26.7l-23.7-0.9l1.1,26.7
		L-143.1,337.5z M-201.1,272.8l24.6,1l-1-26l-24.6-1L-201.1,272.8z M-233,315.6l-159.9,159.9L-451,589c0,0,98.2-42.8,113.5-58.1
		l160.3-160.3c-12.6-6.9-23.1-15.4-31.5-23.7C-221.8,333.9-229.8,321.2-233,315.6z M-75.4,312.9l-0.1,1.3l-30.4-1.2l1.1,28l-0.1,5.6
		l-31.2-2l1.1,28l-6.9,0.3l-1.1-28.5l-28.5-1.1l-2.2-2.2l-1.2-31.5l-31.5-1.2V308h-0.3l-1.1-28.5l-28.5-1.1l0.3-6.9l28,1.1
		l-1.2-30.3l3.4-2.4l28,1.1l-1.1-27.9c-17.1-1-32.7,3.7-43.7,14.8c-19,19-19.4,51.2-4,81.5l0,0c4.5,8,22.6,37.3,55.7,55.1
		c0.2,0.1,0.5,0.3,0.7,0.4l-0.1,0.3c30,14.9,61.8,14.4,80.6-4.4C-77.9,348.8-73.3,331.6-75.4,312.9z M-143.5,303.9l-1-25.9l-24.5-1
		l1,25.9L-143.5,303.9z M-170.6,248.1l0.9,21.9l25,1l-0.9-21.9L-170.6,248.1z"/>
</g>
</svg>
