<?xml version="1.0" encoding="utf-8"?>
<!-- Generator: Adobe Illustrator 19.0.0, SVG Export Plug-In . SVG Version: 6.00 Build 0)  -->
<svg version="1.1"
	 id="svg8507" xmlns:svg="http://www.w3.org/2000/svg" xmlns:rdf="http://www.w3.org/1999/02/22-rdf-syntax-ns#" xmlns:cc="http://creativecommons.org/ns#" xmlns:dc="http://purl.org/dc/elements/1.1/"
	 xmlns="http://www.w3.org/2000/svg" xmlns:xlink="http://www.w3.org/1999/xlink" x="0px" y="0px"
	 viewBox="-492.8 329.5 137.5 20.5" style="enable-background:new -492.8 329.5 137.5 20.5;" xml:space="preserve">
<style type="text/css">
	.st0{clip-path:url(#SVGID_2_);}
	.st1{fill:#FCD144;stroke:#000000;stroke-width:1.4;}
	.st2{fill:#FCD144;stroke:#000000;stroke-width:0.5;}
</style>
<g>
	<defs>
		<rect id="SVGID_1_" x="-492.8" y="329.5" width="137.5" height="20.5"/>
	</defs>
	<clipPath id="SVGID_2_">
		<use xlink:href="#SVGID_1_"  style="overflow:visible;"/>
	</clipPath>
	<g id="layer1" transform="translate(-8.6364892,-9.4039371)" class="st0">
		<g id="g6233" transform="matrix(1.5822261,0,0,1.5822261,967.59435,-7330.1051)">
			<g id="g6644">
				<path id="path7053" class="st1" d="M-919.6,4850.7c-1.2,0-2.5,0.7-2.5,0.7c0,0,0,0,0,0c-0.9-0.4-1.8-0.6-2.7-0.4
					c-1.6,0.3-2.8,1.5-2.8,1.5c0,0,0.1,0,0.1,0c-1,0-1.9,0.1-2.6,0.6c-1.3,0.8-2,2.4-2,2.4c0,0,0.1,0,0.1,0
					c-0.9,0.3-1.7,0.8-2.2,1.5c-0.9,1.3-1,3-1,3c0,0,0.1,0,0.1-0.1c-0.7,0.6-1.3,1.3-1.6,2.2c-0.4,1.5,0.2,3.2,0.2,3.2
					c0,0,0,0,0-0.1c-0.1,0.2-0.2,0.3-0.2,0.5c-0.3,0.6-0.5,1.2-0.5,1.7c0,1.2,0.7,2.5,0.7,2.5c0,0,0.1-0.1,0.1-0.1
					c-0.4,0.8-0.7,1.5-0.7,2.2c0,1.2,0.7,2.5,0.7,2.5c0,0,0,0,0,0c-0.4,0.7-0.7,1.5-0.7,2.1c0,1.2,0.7,2.5,0.7,2.5c0,0,0,0,0,0
					c-0.4,0.7-0.7,1.5-0.7,2.1c0,1.2,0.7,2.5,0.7,2.5c0,0,0,0,0,0c-0.4,0.7-0.7,1.5-0.7,2.1c0,1.2,0.7,2.5,0.7,2.5c0,0,0,0,0,0
					c-0.4,0.7-0.7,1.5-0.7,2.1c0,1.2,0.7,2.5,0.7,2.5c0,0,0,0,0,0c-0.4,0.7-0.7,1.5-0.7,2.1c0,1.2,0.7,2.5,0.7,2.5c0,0,0,0,0,0
					c-0.4,0.7-0.7,1.5-0.7,2.1c0,1.2,0.7,2.5,0.7,2.5c0,0,0,0,0,0c-0.4,0.7-0.7,1.5-0.7,2.1c0,1.2,0.7,2.5,0.7,2.5c0,0,0,0,0,0
					c-0.4,0.7-0.7,1.5-0.7,2.1c0,1.2,0.7,2.5,0.7,2.5c0,0,0,0,0,0c-0.4,0.7-0.7,1.5-0.7,2.1c0,1.2,0.7,2.5,0.7,2.5c0,0,0,0,0,0
					c-0.4,0.7-0.7,1.5-0.7,2.1c0,0.2,0,0.4,0.1,0.7c0.2,1.3,0.8,2.3,0.8,2.3c0,0,0-0.1,0-0.1c-0.3,0.9-0.3,1.9,0,2.7
					c0.5,1.5,1.9,2.5,1.9,2.5c0,0,0-0.1,0-0.1c0.1,1,0.4,1.8,1,2.5c1,1.2,2.7,1.6,2.7,1.6c0,0,0-0.1,0-0.1c0.4,0.9,1,1.6,1.8,2
					c1.4,0.7,3.1,0.6,3.1,0.6c0,0,0,0-0.1-0.1c0.7,0.6,1.5,1.1,2.5,1.2c0.4,0,0.9,0,1.3,0c0.8-0.2,1.5-0.5,1.5-0.5
					c0,0-0.1-0.1-0.1-0.1c0.8,0.4,1.5,0.7,2.2,0.7c1.2,0,2.5-0.7,2.5-0.7c0,0,0,0,0,0c0.7,0.4,1.5,0.7,2.1,0.7
					c1.2,0,2.5-0.7,2.5-0.7c0,0,0,0,0,0c0.7,0.4,1.5,0.7,2.1,0.7c1.2,0,2.5-0.7,2.5-0.7c0,0,0,0,0,0c0.7,0.4,1.5,0.7,2.1,0.7
					c1.2,0,2.5-0.7,2.5-0.7c0,0,0,0,0,0c0.7,0.4,1.5,0.7,2.1,0.7c1.2,0,2.5-0.7,2.5-0.7c0,0,0,0,0,0c0.7,0.4,1.5,0.7,2.1,0.7
					c1.2,0,2.5-0.7,2.5-0.7c0,0,0,0,0,0c0.7,0.4,1.5,0.7,2.1,0.7c1.2,0,2.5-0.7,2.5-0.7c0,0,0,0,0,0c0.7,0.4,1.5,0.7,2.1,0.7
					c1.2,0,2.5-0.7,2.5-0.7c0,0,0,0,0,0c0.7,0.4,1.5,0.7,2.1,0.7c1.2,0,2.5-0.7,2.5-0.7c0,0,0,0,0,0c0.7,0.4,1.5,0.7,2.1,0.7
					c1.2,0,2.5-0.7,2.5-0.7c0,0,0,0,0,0c0.7,0.4,1.5,0.7,2.1,0.7c1.2,0,2.5-0.7,2.5-0.7c0,0,0,0,0,0c0.7,0.4,1.5,0.7,2.1,0.7
					c1.2,0,2.5-0.7,2.5-0.7c0,0,0,0,0,0c0.7,0.4,1.5,0.7,2.1,0.7c1.2,0,2.5-0.7,2.5-0.7c0,0,0,0,0,0c0.7,0.4,1.5,0.7,2.1,0.7
					c1.2,0,2.5-0.7,2.5-0.7c0,0,0,0,0,0c0.7,0.4,1.5,0.7,2.1,0.7c1.2,0,2.5-0.7,2.5-0.7c0,0,0,0,0,0c0.7,0.4,1.5,0.7,2.1,0.7
					c1.2,0,2.5-0.7,2.5-0.7c0,0,0,0,0,0c0.7,0.4,1.5,0.7,2.1,0.7c1.2,0,2.5-0.7,2.5-0.7c0,0,0,0,0,0c0.7,0.4,1.5,0.7,2.1,0.7
					c1.2,0,2.5-0.7,2.5-0.7c0,0,0,0,0,0c0.7,0.4,1.5,0.7,2.1,0.7c1.2,0,2.5-0.7,2.5-0.7c0,0,0,0,0,0c0.7,0.4,1.5,0.7,2.1,0.7
					c1.2,0,2.5-0.7,2.5-0.7c0,0,0,0,0,0c0.7,0.4,1.5,0.7,2.1,0.7c0.1,0,0.2,0,0.2,0c1.5-0.1,2.8-1,2.8-1c0,0,0,0-0.1,0
					c0.9,0.2,1.9,0.2,2.7-0.1c1.5-0.6,2.4-2,2.4-2c0,0,0,0-0.1,0c0.9-0.1,1.8-0.5,2.4-1c1.1-1.1,1.5-2.7,1.5-2.7c0,0-0.1,0-0.1,0
					c0.8-0.4,1.5-1.1,1.9-1.8c0.7-1.4,0.4-3.1,0.4-3.1c0,0,0,0-0.1,0.1c0.6-0.7,1-1.6,1.1-2.5c0-0.2,0-0.5,0-0.7c-0.1-1-0.6-2-0.6-2
					c0,0,0,0-0.1,0.1c0.4-0.7,0.7-1.5,0.7-2.1c0-1.2-0.7-2.5-0.7-2.5c0,0,0,0,0,0c0.4-0.7,0.7-1.5,0.7-2.1c0-1.2-0.7-2.5-0.7-2.5
					c0,0,0,0,0,0c0.4-0.7,0.7-1.5,0.7-2.1c0-1.2-0.7-2.5-0.7-2.5c0,0,0,0,0,0c0.4-0.7,0.7-1.5,0.7-2.1c0-1.2-0.7-2.5-0.7-2.5
					c0,0,0,0,0,0c0.4-0.7,0.7-1.5,0.7-2.1c0-1.2-0.7-2.5-0.7-2.5c0,0,0,0,0,0c0.4-0.7,0.7-1.5,0.7-2.1c0-1.2-0.7-2.5-0.7-2.5
					c0,0,0,0,0,0c0.4-0.7,0.7-1.5,0.7-2.1c0-1.2-0.7-2.5-0.7-2.5c0,0,0,0,0,0c0.4-0.7,0.7-1.5,0.7-2.1c0-1.2-0.7-2.5-0.7-2.5
					c0,0,0,0,0,0c0.4-0.7,0.7-1.5,0.7-2.1c0-1.2-0.7-2.5-0.7-2.5c0,0,0,0,0,0c0.4-0.7,0.7-1.5,0.7-2.1c0-1.2-0.7-2.5-0.7-2.5
					c0,0,0,0,0,0c0.4-0.7,0.7-1.5,0.7-2.1c0-1.2-0.7-2.5-0.7-2.5c0,0-0.1,0.1-0.1,0.1c0.1-0.2,0.2-0.4,0.3-0.5
					c0.3-0.7,0.3-1.5,0.2-2.1c-0.3-1.6-1.5-2.8-1.5-2.8c0,0,0,0,0,0c0.1-1-0.1-1.9-0.5-2.6c-0.8-1.3-2.3-2.1-2.3-2.1
					c0,0,0,0.1,0,0.1c-0.3-0.9-0.7-1.7-1.4-2.3c-1.2-1-2.9-1.1-2.9-1.1c0,0,0,0.1,0,0.1c-0.6-0.8-1.3-1.4-2.1-1.6
					c-1.5-0.5-3.2,0-3.2,0c0,0,0,0,0.1,0.1c-0.3-0.2-0.6-0.3-1-0.5c-0.5-0.2-0.9-0.3-1.3-0.3c-1.2,0-2.5,0.7-2.5,0.7
					c0,0,0,0,0.1,0.1c-0.7-0.4-1.5-0.7-2.1-0.7c-1.2,0-2.5,0.7-2.5,0.7c0,0,0,0,0.1,0c-0.7-0.4-1.5-0.7-2.1-0.7
					c-1.2,0-2.5,0.7-2.5,0.7c0,0,0,0,0,0c-0.7-0.4-1.5-0.7-2.1-0.7c-1.2,0-2.5,0.7-2.5,0.7c0,0,0,0,0,0c-0.7-0.4-1.5-0.7-2.1-0.7
					c-1.2,0-2.5,0.7-2.5,0.7c0,0,0,0,0.1,0c-0.7-0.4-1.5-0.7-2.1-0.7c-1.2,0-2.5,0.7-2.5,0.7c0,0,0,0,0.1,0
					c-0.7-0.4-1.5-0.7-2.1-0.7c-1.2,0-2.5,0.7-2.5,0.7c0,0,0,0,0.1,0c-0.7-0.4-1.5-0.7-2.1-0.7c-1.2,0-2.5,0.7-2.5,0.7c0,0,0,0,0,0
					c-0.7-0.4-1.5-0.7-2.1-0.7c-1.2,0-2.5,0.7-2.5,0.7c0,0,0,0,0.1,0c-0.7-0.4-1.5-0.7-2.1-0.7c-1.2,0-2.5,0.7-2.5,0.7
					c0,0,0,0,0.1,0c-0.7-0.4-1.5-0.7-2.1-0.7c-1.2,0-2.5,0.7-2.5,0.7c0,0,0,0,0.1,0c-0.7-0.4-1.5-0.7-2.1-0.7
					c-1.2,0-2.5,0.7-2.5,0.7c0,0,0,0,0,0c-0.7-0.4-1.5-0.7-2.1-0.7c-1.2,0-2.5,0.7-2.5,0.7c0,0,0,0,0,0c-0.7-0.4-1.5-0.7-2.1-0.7
					c-1.2,0-2.5,0.7-2.5,0.7c0,0,0,0,0.1,0c-0.7-0.4-1.5-0.7-2.1-0.7c-1.2,0-2.5,0.7-2.5,0.7c0,0,0,0,0.1,0
					c-0.7-0.4-1.5-0.7-2.1-0.7c-1.2,0-2.5,0.7-2.5,0.7c0,0,0,0,0,0c-0.7-0.4-1.5-0.7-2.1-0.7c-1.2,0-2.5,0.7-2.5,0.7c0,0,0,0,0,0
					c-0.7-0.4-1.5-0.7-2.1-0.7c-1.2,0-2.5,0.7-2.5,0.7c0,0,0,0,0.1,0c-0.7-0.4-1.5-0.7-2.1-0.7c-1.2,0-2.5,0.7-2.5,0.7
					c0,0,0,0,0.1,0c-0.7-0.4-1.5-0.7-2.1-0.7c-1.2,0-2.5,0.7-2.5,0.7c0,0,0,0,0,0C-918.2,4850.9-919,4850.7-919.6,4850.7
					L-919.6,4850.7z M-918.3,4855.1c1.1,1.2,2.2,2.1,3.4,1.9c1.2,0,2.4-0.6,2.4-0.6c0-0.1,0-0.2-0.1-0.3c0.8,0.6,1.5,1,2.3,0.9
					c1.2,0,2.4-0.6,2.4-0.6c0-0.1,0-0.2-0.1-0.3c0.8,0.6,1.5,1,2.3,0.9c1.2,0,2.4-0.6,2.4-0.6c0-0.1,0-0.2-0.1-0.3
					c0.8,0.6,1.5,1,2.3,0.9c1.2,0,2.4-0.6,2.4-0.6c0-0.1,0-0.2-0.1-0.3c0.8,0.6,1.5,1,2.3,0.9c1.2,0,2.4-0.6,2.4-0.6
					c0-0.1,0-0.2-0.1-0.3c0.8,0.6,1.5,1,2.3,0.9c1.2,0,2.4-0.6,2.4-0.6c0-0.1,0-0.2-0.1-0.3c0.8,0.6,1.5,1,2.3,0.9
					c1.2,0,2.4-0.6,2.4-0.6c0-0.1,0-0.2-0.1-0.3c0.8,0.6,1.5,1,2.3,0.9c1.2,0,2.4-0.6,2.4-0.6c0-0.1-0.1-0.2-0.1-0.3
					c0.8,0.6,1.5,1,2.3,0.9c1.2,0,2.4-0.6,2.4-0.6c0-0.1,0-0.2-0.1-0.3c0.8,0.6,1.5,1,2.3,0.9c1.2,0,2.4-0.6,2.4-0.6
					c0-0.1,0-0.2-0.1-0.3c0.8,0.6,1.5,1,2.3,0.9c1.2,0,2.4-0.6,2.4-0.6c0-0.1,0-0.2-0.1-0.3c0.8,0.6,1.5,1,2.3,0.9
					c1.2,0,2.4-0.6,2.4-0.6c0-0.1-0.1-0.2-0.1-0.3c0.8,0.6,1.5,1,2.3,0.9c1.2,0,2.4-0.6,2.4-0.6c0-0.1,0-0.2-0.1-0.3
					c0.8,0.6,1.5,1,2.3,0.9c1.2,0,2.4-0.6,2.4-0.6c0-0.1,0-0.2-0.1-0.3c0.8,0.6,1.5,1,2.3,0.9c1.2,0,2.4-0.6,2.4-0.6
					c0-0.1,0-0.2-0.1-0.3c0.8,0.6,1.5,1,2.3,0.9c1.2,0,2.4-0.6,2.4-0.6c0-0.1,0-0.2-0.1-0.3c0.8,0.6,1.5,1,2.3,0.9
					c1.2,0,2.4-0.6,2.4-0.6c0-0.1,0-0.2-0.1-0.3c0.8,0.6,1.5,1,2.3,0.9c1.2,0,2.4-0.6,2.4-0.6c0-0.1,0-0.2-0.1-0.3
					c0.8,0.6,1.5,1,2.3,0.9c1.2,0,2.4-0.6,2.4-0.6c0-0.1,0-0.2-0.1-0.3c0.8,0.6,1.5,1,2.3,0.9c0.4,0,0.8-0.1,1.2-0.2
					c0.5-0.2,0.9-0.4,0.9-0.4c0-0.1,0-0.1,0-0.3c0.5,0.6,0.9,1.1,1.5,1.2c0.8,0.3,1.8,0.2,1.9,0.2c0.2,0.6,0.5,1.1,1.1,1.5
					c0.7,0.6,1.8,0.9,1.8,0.9c0,0,0.1-0.1,0.1-0.2c0,0.8,0,1.4,0.4,1.9c0.5,0.8,1.3,1.4,1.3,1.4c0,0,0.1-0.1,0.1-0.1
					c-0.3,0.7-0.5,1.2-0.4,1.8c0,0.4,0.2,0.7,0.3,1c0.2,0.5,0.4,0.9,0.4,0.9c0.1,0,0.2,0,0.3-0.1c-0.6,0.7-1,1.5-0.9,2.3
					c0,1.2,0.6,2.4,0.6,2.4c0.1,0,0.2,0,0.3-0.1c-0.6,0.8-1,1.5-0.9,2.3c0,1.2,0.6,2.4,0.6,2.4c0.1,0,0.2,0,0.3-0.1
					c-0.6,0.8-1,1.5-0.9,2.3c0,1.2,0.6,2.4,0.6,2.4c0.1,0,0.2-0.1,0.3-0.1c-0.6,0.8-1,1.5-0.9,2.3c0,1.2,0.6,2.4,0.6,2.4
					c0.1,0,0.2,0,0.3-0.1c-0.6,0.8-1,1.5-0.9,2.3c0,1.2,0.6,2.4,0.6,2.4c0.1,0,0.2,0,0.3-0.1c-0.6,0.8-1,1.5-0.9,2.3
					c0,1.2,0.6,2.4,0.6,2.4c0.1,0,0.2,0,0.3-0.1c-0.6,0.8-1,1.5-0.9,2.3c0,1.2,0.6,2.4,0.6,2.4c0.1,0,0.2-0.1,0.3-0.1
					c-0.6,0.8-1,1.5-0.9,2.3c0,1.2,0.6,2.4,0.6,2.4c0.1,0,0.2,0,0.3-0.1c-0.6,0.8-1,1.5-0.9,2.3c0,1.2,0.6,2.4,0.6,2.4
					c0.1,0,0.2,0,0.3-0.1c-0.6,0.8-1,1.5-0.9,2.3c0,1.2,0.6,2.4,0.6,2.4c0.1,0,0.2,0,0.3-0.1c-0.6,0.8-1,1.5-0.9,2.3
					c0,1.2,0.6,2.4,0.6,2.4c0.1,0,0.2,0,0.3-0.1c-0.4,0.5-0.7,1-0.8,1.6c0,0.2-0.1,0.3,0,0.5c0,0.8,0.3,1.8,0.3,1.8
					c0.1,0,0.2,0,0.3,0c-0.7,0.4-1.3,0.8-1.5,1.3c-0.4,0.8-0.5,1.9-0.5,1.9c0,0,0.1,0,0.1,0c-0.7,0.1-1.3,0.3-1.7,0.8
					c-0.7,0.6-1.1,1.6-1.1,1.6c0,0,0.1,0.1,0.1,0.1c-0.7-0.2-1.4-0.2-1.9,0.1c-0.8,0.3-1.5,1.1-1.5,1.1c0,0,0.1,0.1,0.1,0.2
					c-0.5-0.4-1-0.7-1.5-0.7c-0.1,0-0.2,0-0.4,0c-1.2,0-2.4,0.6-2.4,0.6c0,0.1,0,0.2,0.1,0.3c-0.8-0.6-1.5-1-2.3-0.9
					c-1.2,0-2.4,0.6-2.4,0.6l0,0c0,0.1,0,0.2,0.1,0.3c-0.8-0.6-1.5-1-2.3-0.9c-1.2,0-2.4,0.6-2.4,0.6c0,0.1,0,0.2,0.1,0.3
					c-0.8-0.6-1.5-1-2.3-0.9c-1.2,0-2.4,0.6-2.4,0.6c0,0.1,0,0.2,0.1,0.3c-0.8-0.6-1.5-1-2.3-0.9c-1.2,0-2.4,0.6-2.4,0.6
					c0,0.1,0,0.2,0.1,0.3c-0.8-0.6-1.5-1-2.3-0.9c-1.2,0-2.4,0.6-2.4,0.6c0,0.1,0,0.2,0.1,0.3c-0.8-0.6-1.5-1-2.3-0.9
					c-1.2,0-2.4,0.6-2.4,0.6c0,0.1,0,0.2,0.1,0.3c-0.8-0.6-1.5-1-2.3-0.9c-1.2,0-2.4,0.6-2.4,0.6c0,0.1,0,0.2,0.1,0.3
					c-0.8-0.6-1.5-1-2.3-0.9c-1.2,0-2.4,0.6-2.4,0.6c0,0.1,0.1,0.2,0.1,0.3c-0.8-0.6-1.5-1-2.3-0.9c-1.2,0-2.4,0.6-2.4,0.6
					c0,0.1,0,0.2,0.1,0.3c-0.8-0.6-1.5-1-2.3-0.9c-1.2,0-2.4,0.6-2.4,0.6c0,0.1,0,0.2,0.1,0.3c-0.8-0.6-1.5-1-2.3-0.9
					c-1.2,0-2.4,0.6-2.4,0.6c0,0.1,0,0.2,0.1,0.3c-0.8-0.6-1.5-1-2.3-0.9c-1.2,0-2.4,0.6-2.4,0.6c0,0.1,0.1,0.2,0.1,0.3
					c-0.8-0.6-1.5-1-2.3-0.9c-1.2,0-2.4,0.6-2.4,0.6c0,0.1,0,0.2,0.1,0.3c-0.8-0.6-1.5-1-2.3-0.9c-1.2,0-2.4,0.6-2.4,0.6
					c0,0.1,0,0.2,0.1,0.3c-0.8-0.6-1.5-1-2.3-0.9c-1.2,0-2.4,0.6-2.4,0.6c0,0.1,0,0.2,0.1,0.3c-0.8-0.6-1.5-1-2.3-0.9
					c-1.2,0-2.4,0.6-2.4,0.6c0,0.1,0,0.2,0.1,0.3c-0.8-0.6-1.5-1-2.3-0.9c-1.2,0-2.4,0.6-2.4,0.6c0,0.1,0,0.2,0.1,0.3
					c-0.8-0.6-1.5-1-2.3-0.9c-1.2,0-2.4,0.6-2.4,0.6c0,0.1,0,0.2,0.1,0.3c-0.8-0.6-1.5-1-2.3-0.9c-1.2,0-2.4,0.6-2.4,0.6
					c0,0.1,0,0.2,0.1,0.3c-0.8-0.6-1.5-1-2.3-0.9c-1.2,0-2.4,0.6-2.4,0.6c0,0.1,0,0.2,0.1,0.3c-0.4-0.3-0.8-0.6-1.2-0.7
					c-0.3-0.1-0.5-0.2-0.8-0.2c-0.8-0.1-1.9,0.2-1.9,0.2c0,0.1,0,0.2,0,0.3c-0.4-0.7-0.7-1.3-1.2-1.5c-0.8-0.4-1.9-0.5-1.9-0.5
					c0,0,0,0.1-0.1,0.1c-0.1-0.7-0.2-1.3-0.7-1.8c-0.6-0.7-1.6-1.1-1.6-1.1c0,0-0.1,0.1-0.1,0.1c0.2-0.7,0.3-1.4,0-1.9
					c-0.3-0.8-1-1.6-1-1.6c0,0-0.1,0.1-0.2,0.1c0.3-0.4,0.6-0.8,0.7-1.1c0.1-0.3,0.1-0.5,0.1-0.8c0-1.2-0.6-2.4-0.6-2.4
					c-0.1,0-0.2,0-0.3,0.1c0.6-0.8,1-1.5,0.9-2.3c0-1.2-0.6-2.4-0.6-2.4c-0.1,0-0.2,0-0.3,0.1c0.6-0.8,1-1.5,0.9-2.3
					c0-1.2-0.6-2.4-0.6-2.4c-0.1,0-0.2,0-0.3,0.1c0.6-0.8,1-1.5,0.9-2.3c0-1.2-0.6-2.4-0.6-2.4c-0.1,0-0.2,0-0.3,0.1
					c0.6-0.8,1-1.5,0.9-2.3c0-1.2-0.6-2.4-0.6-2.4c-0.1,0-0.2,0-0.3,0.1c0.6-0.8,1-1.5,0.9-2.3c0-1.2-0.6-2.4-0.6-2.4
					c-0.1,0-0.2,0-0.3,0.1c0.6-0.8,1-1.5,0.9-2.3c0-1.2-0.6-2.4-0.6-2.4c-0.1,0-0.2,0-0.3,0.1c0.6-0.8,1-1.5,0.9-2.3
					c0-1.2-0.6-2.4-0.6-2.4c-0.1,0-0.2,0-0.3,0.1c0.6-0.8,1-1.5,0.9-2.3c0-1.2-0.6-2.4-0.6-2.4c-0.1,0-0.2,0-0.3,0.1
					c0.6-0.8,1-1.5,0.9-2.3c0-1.2-0.6-2.4-0.6-2.4c-0.1,0-0.2,0-0.3,0.1c0.6-0.8,1-1.5,0.9-2.3c0-1.2-0.6-2.4-0.6-2.4
					c-0.1,0-0.2,0-0.3,0.1c0.6-0.8,1-1.5,0.9-2.3c0-0.6-0.1-1.2-0.3-1.6c-0.2-0.3-0.3-0.6-0.3-0.6c-0.1,0-0.2,0-0.3,0.1
					c0.6-0.5,1.1-1,1.2-1.5c0.2-0.8,0.1-1.7,0.1-1.8c0.6-0.2,1-0.5,1.4-1.1c0.5-0.7,0.8-1.8,0.8-1.8c0,0-0.1-0.1-0.2-0.1
					c0.8,0,1.4,0,1.9-0.4c0.7-0.5,1.3-1.4,1.3-1.4c0,0-0.1-0.1-0.1-0.1c0.7,0.3,1.3,0.5,1.8,0.3c0.8-0.1,1.7-0.7,1.7-0.7
					c0-0.1-0.1-0.5-0.4-0.9c0.6,0.6,1.1,1.2,1.8,1.4c0.8,0.3,2.9-0.4,2.9-0.4C-917.3,4856.2-917.7,4855.8-918.3,4855.1
					L-918.3,4855.1z M-829.7,4927.6C-829.7,4927.6-829.7,4927.6-829.7,4927.6L-829.7,4927.6L-829.7,4927.6z"/>
				<path id="path6231" class="st2" d="M-912.5,4856.4c0,0-1.2,0.6-2.4,0.6c-2.4,0.3-4.6-3.8-7.2-5.7c0,0,1.3-0.7,2.5-0.7
					C-916.8,4850.7-912.5,4855.7-912.5,4856.4L-912.5,4856.4z"/>
				<path id="path6229" class="st2" d="M-907.9,4856.4c0,0-1.2,0.6-2.4,0.6c-2.4,0.3-4.6-3.8-7.2-5.7c0,0,1.3-0.7,2.5-0.7
					C-912.3,4850.7-907.9,4855.7-907.9,4856.4L-907.9,4856.4z"/>
				<path id="path6227" class="st2" d="M-903.4,4856.4c0,0-1.2,0.6-2.4,0.6c-2.4,0.3-4.6-3.8-7.2-5.7c0,0,1.3-0.7,2.5-0.7
					C-907.7,4850.7-903.4,4855.7-903.4,4856.4L-903.4,4856.4z"/>
				<path id="path6225" class="st2" d="M-898.8,4856.4c0,0-1.2,0.6-2.4,0.6c-2.4,0.3-4.6-3.8-7.2-5.7c0,0,1.3-0.7,2.5-0.7
					C-903.1,4850.7-898.8,4855.7-898.8,4856.4L-898.8,4856.4z"/>
				<path id="path6223" class="st2" d="M-894.2,4856.4c0,0-1.2,0.6-2.4,0.6c-2.4,0.3-4.6-3.8-7.2-5.7c0,0,1.3-0.7,2.5-0.7
					C-898.5,4850.7-894.2,4855.7-894.2,4856.4L-894.2,4856.4z"/>
				<path id="path6221" class="st2" d="M-889.7,4856.4c0,0-1.2,0.6-2.4,0.6c-2.4,0.3-4.6-3.8-7.2-5.7c0,0,1.3-0.7,2.5-0.7
					C-894,4850.7-889.7,4855.7-889.7,4856.4L-889.7,4856.4z"/>
				<path id="path6219" class="st2" d="M-885.1,4856.4c0,0-1.2,0.6-2.4,0.6c-2.4,0.3-4.6-3.8-7.2-5.7c0,0,1.3-0.7,2.5-0.7
					C-889.4,4850.7-885.1,4855.7-885.1,4856.4L-885.1,4856.4z"/>
				<path id="path6217" class="st2" d="M-880.5,4856.4c0,0-1.2,0.6-2.4,0.6c-2.4,0.3-4.6-3.8-7.2-5.7c0,0,1.3-0.7,2.5-0.7
					C-884.8,4850.7-880.5,4855.7-880.5,4856.4L-880.5,4856.4z"/>
				<path id="path6215" class="st2" d="M-875.9,4856.4c0,0-1.2,0.6-2.4,0.6c-2.4,0.3-4.6-3.8-7.2-5.7c0,0,1.3-0.7,2.5-0.7
					C-880.3,4850.7-875.9,4855.7-875.9,4856.4L-875.9,4856.4z"/>
				<path id="path6213" class="st2" d="M-871.4,4856.4c0,0-1.2,0.6-2.4,0.6c-2.4,0.3-4.6-3.8-7.2-5.7c0,0,1.3-0.7,2.5-0.7
					C-875.7,4850.7-871.4,4855.7-871.4,4856.4L-871.4,4856.4z"/>
				<path id="path6211" class="st2" d="M-866.8,4856.4c0,0-1.2,0.6-2.4,0.6c-2.4,0.3-4.6-3.8-7.2-5.7c0,0,1.3-0.7,2.5-0.7
					C-871.1,4850.7-866.8,4855.7-866.8,4856.4L-866.8,4856.4z"/>
				<path id="path6209" class="st2" d="M-862.2,4856.4c0,0-1.2,0.6-2.4,0.6c-2.4,0.3-4.6-3.8-7.2-5.7c0,0,1.3-0.7,2.5-0.7
					C-866.6,4850.7-862.2,4855.7-862.2,4856.4L-862.2,4856.4z"/>
				<path id="path6207" class="st2" d="M-857.7,4856.4c0,0-1.2,0.6-2.4,0.6c-2.4,0.3-4.6-3.8-7.2-5.7c0,0,1.3-0.7,2.5-0.7
					C-862,4850.7-857.7,4855.7-857.7,4856.4L-857.7,4856.4z"/>
				<path id="path6205" class="st2" d="M-853.1,4856.4c0,0-1.2,0.6-2.4,0.6c-2.4,0.3-4.6-3.8-7.2-5.7c0,0,1.3-0.7,2.5-0.7
					C-857.4,4850.7-853.1,4855.7-853.1,4856.4L-853.1,4856.4z"/>
				<path id="path6203" class="st2" d="M-848.5,4856.4c0,0-1.2,0.6-2.4,0.6c-2.4,0.3-4.6-3.8-7.2-5.7c0,0,1.3-0.7,2.5-0.7
					C-852.8,4850.7-848.5,4855.7-848.5,4856.4L-848.5,4856.4z"/>
				<path id="path6201" class="st2" d="M-844,4856.4c0,0-1.2,0.6-2.4,0.6c-2.4,0.3-4.6-3.8-7.2-5.7c0,0,1.3-0.7,2.5-0.7
					C-848.3,4850.7-844,4855.7-844,4856.4L-844,4856.4z"/>
				<path id="path6199" class="st2" d="M-839.4,4856.4c0,0-1.2,0.6-2.4,0.6c-2.4,0.3-4.6-3.8-7.2-5.7c0,0,1.3-0.7,2.5-0.7
					C-843.7,4850.7-839.4,4855.7-839.4,4856.4z"/>
				<path id="path6197" class="st2" d="M-834.8,4856.4c0,0-1.2,0.6-2.4,0.6c-2.4,0.3-4.6-3.8-7.2-5.7c0,0,1.3-0.7,2.5-0.7
					C-839.1,4850.7-834.8,4855.7-834.8,4856.4z"/>
				<path id="path6195" class="st2" d="M-830.2,4856.4c0,0-1.2,0.6-2.4,0.6c-2.4,0.3-4.6-3.8-7.2-5.7c0,0,1.3-0.7,2.5-0.7
					C-834.6,4850.7-830.2,4855.7-830.2,4856.4z"/>
				<path id="path6193" class="st2" d="M-826,4856.4c0,0-0.4,0.2-0.9,0.4l0,0c-0.4,0.1-0.8,0.2-1.2,0.2c-2.4,0.3-4.6-3.8-7.2-5.7
					c0,0,1.3-0.7,2.5-0.7c1.9,0,4.4,2.2,5.9,3.9C-826.2,4855.4-826,4856.2-826,4856.4L-826,4856.4z"/>
				<path id="path6191" class="st2" d="M-822.7,4857.5c0,0-1.1,0.1-1.9-0.2c-0.8-0.1-1.3-1.1-2.3-2.3c-1.2-1.2-2.5-2.8-3.8-3.8
					c0,0,1.3-0.7,2.5-0.7c0.4,0,0.8,0.1,1.3,0.3c1.8,0.6,3.1,2.1,3.8,3.6C-822.5,4856-822.5,4857.3-822.7,4857.5L-822.7,4857.5z"/>
				<path id="path6189" class="st2" d="M-819.9,4859.9c0,0-1.1-0.3-1.8-0.9c-2.3-1.4,0-4.7-4.3-7.6c0,0,1.7-0.5,3.2,0
					c1.8,0.6,3.1,2.7,3.4,4.7C-819.1,4858.1-819.6,4859.7-819.9,4859.9L-819.9,4859.9z"/>
				<path id="path6187" class="st2" d="M-818.1,4863c0,0-0.9-0.6-1.3-1.4c-1.3-1.6,1.1-4.9-1.3-8.7c0,0,1.7,0.1,2.9,1.1
					c1.5,1.2,1.9,3.6,1.5,5.6C-816.7,4861.6-817.8,4862.9-818.1,4863L-818.1,4863z"/>
				<path id="path6185" class="st2" d="M-817.6,4866.6c0,0-0.2-0.4-0.4-0.9c-0.1-0.3-0.2-0.7-0.3-1c-0.5-1.9,2.8-4,1.9-8.5
					c0,0,1.5,0.7,2.3,2.1c0.7,1.1,0.7,2.7,0.2,4.2c-0.5,1.5-1.4,2.6-2.3,3.3C-816.9,4866.3-817.4,4866.6-817.6,4866.6L-817.6,4866.6
					z"/>
				<path id="path6183" class="st2" d="M-817.6,4871.2c0,0-0.6-1.2-0.6-2.4c-0.1-1,0.6-2.1,1.6-3.1c1.3-1.1,2.8-2.8,3.1-4.9
					c0,0,1.2,1.2,1.4,2.8c0.1,0.6,0,1.4-0.2,2.1C-813.6,4868.3-817.1,4871.2-817.6,4871.2z"/>
				<path id="path6181" class="st2" d="M-817.6,4875.7c0,0-0.6-1.2-0.6-2.4c-0.3-2.4,3.8-4.6,5.7-7.2c0,0,0.7,1.3,0.7,2.5
					C-811.9,4871.4-817,4875.7-817.6,4875.7L-817.6,4875.7z"/>
				<path id="path6179" class="st2" d="M-817.6,4880.3c0,0-0.6-1.2-0.6-2.4c-0.3-2.4,3.8-4.6,5.7-7.2c0,0,0.7,1.3,0.7,2.5
					C-811.9,4876-817,4880.3-817.6,4880.3L-817.6,4880.3z"/>
				<path id="path6177" class="st2" d="M-817.6,4884.9c0,0-0.6-1.2-0.6-2.4c-0.3-2.4,3.8-4.6,5.7-7.2c0,0,0.7,1.3,0.7,2.5
					C-811.9,4880.6-817,4884.9-817.6,4884.9L-817.6,4884.9z"/>
				<path id="path6175" class="st2" d="M-817.6,4889.5c0,0-0.6-1.2-0.6-2.4c-0.3-2.4,3.8-4.6,5.7-7.2c0,0,0.7,1.3,0.7,2.5
					C-811.9,4885.1-817,4889.5-817.6,4889.5L-817.6,4889.5z"/>
				<path id="path6173" class="st2" d="M-817.6,4894c0,0-0.6-1.2-0.6-2.4c-0.3-2.4,3.8-4.6,5.7-7.2c0,0,0.7,1.3,0.7,2.5
					C-811.9,4889.7-817,4894-817.6,4894L-817.6,4894z"/>
				<path id="path6171" class="st2" d="M-817.6,4898.6c0,0-0.6-1.2-0.6-2.4c-0.3-2.4,3.8-4.6,5.7-7.2c0,0,0.7,1.3,0.7,2.5
					C-811.9,4894.3-817,4898.6-817.6,4898.6L-817.6,4898.6z"/>
				<path id="path6169" class="st2" d="M-817.6,4903.2c0,0-0.6-1.2-0.6-2.4c-0.3-2.4,3.8-4.6,5.7-7.2c0,0,0.7,1.3,0.7,2.5
					C-811.9,4898.8-817,4903.2-817.6,4903.2L-817.6,4903.2z"/>
				<path id="path6167" class="st2" d="M-817.6,4907.7c0,0-0.6-1.2-0.6-2.4c-0.3-2.4,3.8-4.6,5.7-7.2c0,0,0.7,1.3,0.7,2.5
					C-811.9,4903.4-817,4907.7-817.6,4907.7L-817.6,4907.7z"/>
				<path id="path6165" class="st2" d="M-817.6,4912.3c0,0-0.6-1.2-0.6-2.4c-0.3-2.4,3.8-4.6,5.7-7.2c0,0,0.7,1.3,0.7,2.5
					C-811.9,4908-817,4912.3-817.6,4912.3L-817.6,4912.3z"/>
				<path id="path6163" class="st2" d="M-817.6,4916.9c0,0-0.6-1.2-0.6-2.4c-0.3-2.4,3.8-4.6,5.7-7.2c0,0,0.7,1.3,0.7,2.5
					C-811.9,4912.6-817,4916.9-817.6,4916.9L-817.6,4916.9z"/>
				<path id="path6161" class="st2" d="M-817.9,4920.7c0,0-0.3-1-0.3-1.8c0-0.2,0-0.3,0-0.5c0.5-2.1,4-4.1,5.7-6.5
					c0,0,0.7,1.3,0.7,2.5c0,1.2-1,2.7-2.1,4l0,0C-815.5,4920.3-817.6,4920.8-817.9,4920.7L-817.9,4920.7z"/>
				<path id="path6159" class="st2" d="M-819.6,4923.8c0,0,0.1-1.1,0.5-1.9c0.4-1.2,2.8-1.5,4.8-3.6c0.7-0.6,1.3-1.3,1.8-2
					c0,0,0.5,0.9,0.6,2c0,0.2,0,0.5,0,0.7c-0.1,2-1.9,3.7-3.8,4.4C-817.7,4924.3-819.3,4924-819.6,4923.8L-819.6,4923.8z"/>
				<path id="path6157" class="st2" d="M-822.3,4926.3c0,0,0.4-1,1.1-1.6c1.4-1.7,5,0.2,8.2-3.1c0,0,0.2,1.7-0.4,3.1
					c-0.8,1.7-3.1,2.6-5.2,2.7C-820.6,4927.3-822.1,4926.5-822.3,4926.3z"/>
				<path id="path6155" class="st2" d="M-825.6,4927.5c0,0,0.8-0.8,1.5-1.1c1.7-1,4.7,1.8,8.8,0c0,0-0.4,1.7-1.5,2.7
					c-1.4,1.3-3.8,1.4-5.8,0.7C-824.5,4929.2-825.5,4927.9-825.6,4927.5L-825.6,4927.5z"/>
				<path id="path6153" class="st2" d="M-829.7,4927.6c0,0,1.2-0.6,2.4-0.6c0.1,0,0.2,0,0.4,0c1.6,0.2,3.7,3.5,7.8,3.2
					c0,0-0.9,1.4-2.4,2c-1.6,0.7-3.9,0-5.4-1.2l0,0C-828.5,4929.6-829.7,4928-829.7,4927.6L-829.7,4927.6z"/>
				<path id="path6151" class="st2" d="M-834.3,4927.6c0,0,1.2-0.6,2.4-0.6c1.7-0.2,3.2,1.8,4.9,3.6c0.8,0.8,1.7,1.4,2.8,1.8
					c0,0-1.2,0.9-2.8,1l0,0c-0.1,0-0.2,0-0.2,0C-829.9,4933.4-834.3,4928.3-834.3,4927.6L-834.3,4927.6z"/>
				<path id="path6149" class="st2" d="M-838.8,4927.6c0,0,1.2-0.6,2.4-0.6c2.4-0.3,4.6,3.8,7.2,5.7c0,0-1.3,0.7-2.5,0.7
					C-834.5,4933.4-838.8,4928.3-838.8,4927.6z"/>
				<path id="path6147" class="st2" d="M-843.4,4927.6c0,0,1.2-0.6,2.4-0.6c2.4-0.3,4.6,3.8,7.2,5.7c0,0-1.3,0.7-2.5,0.7
					C-839.1,4933.4-843.4,4928.3-843.4,4927.6z"/>
				<path id="path6145" class="st2" d="M-848,4927.6c0,0,1.2-0.6,2.4-0.6c2.4-0.3,4.6,3.8,7.2,5.7c0,0-1.3,0.7-2.5,0.7
					C-843.6,4933.4-848,4928.3-848,4927.6z"/>
				<path id="path6143" class="st2" d="M-852.5,4927.6c0,0,1.2-0.6,2.4-0.6c2.4-0.3,4.6,3.8,7.2,5.7c0,0-1.3,0.7-2.5,0.7
					C-848.2,4933.4-852.5,4928.3-852.5,4927.6L-852.5,4927.6z"/>
				<path id="path6141" class="st2" d="M-857.1,4927.6c0,0,1.2-0.6,2.4-0.6c2.4-0.3,4.6,3.8,7.2,5.7c0,0-1.3,0.7-2.5,0.7
					C-852.8,4933.4-857.1,4928.3-857.1,4927.6L-857.1,4927.6z"/>
				<path id="path6139" class="st2" d="M-861.7,4927.6c0,0,1.2-0.6,2.4-0.6c2.4-0.3,4.6,3.8,7.2,5.7c0,0-1.3,0.7-2.5,0.7
					C-857.4,4933.4-861.7,4928.3-861.7,4927.6L-861.7,4927.6z"/>
				<path id="path6137" class="st2" d="M-866.2,4927.6c0,0,1.2-0.6,2.4-0.6c2.4-0.3,4.6,3.8,7.2,5.7c0,0-1.3,0.7-2.5,0.7
					C-861.9,4933.4-866.2,4928.3-866.2,4927.6L-866.2,4927.6z"/>
				<path id="path6135" class="st2" d="M-870.8,4927.6c0,0,1.2-0.6,2.4-0.6c2.4-0.3,4.6,3.8,7.2,5.7c0,0-1.3,0.7-2.5,0.7
					C-866.5,4933.4-870.8,4928.3-870.8,4927.6L-870.8,4927.6z"/>
				<path id="path6133" class="st2" d="M-875.4,4927.6c0,0,1.2-0.6,2.4-0.6c2.4-0.3,4.6,3.8,7.2,5.7c0,0-1.3,0.7-2.5,0.7
					C-871.1,4933.4-875.4,4928.3-875.4,4927.6L-875.4,4927.6z"/>
				<path id="path6131" class="st2" d="M-880,4927.6c0,0,1.2-0.6,2.4-0.6c2.4-0.3,4.6,3.8,7.2,5.7c0,0-1.3,0.7-2.5,0.7
					C-875.6,4933.4-880,4928.3-880,4927.6L-880,4927.6z"/>
				<path id="path6129" class="st2" d="M-884.5,4927.6c0,0,1.2-0.6,2.4-0.6c2.4-0.3,4.6,3.8,7.2,5.7c0,0-1.3,0.7-2.5,0.7
					C-880.2,4933.4-884.5,4928.3-884.5,4927.6L-884.5,4927.6z"/>
				<path id="path6127" class="st2" d="M-889.1,4927.6c0,0,1.2-0.6,2.4-0.6c2.4-0.3,4.6,3.8,7.2,5.7c0,0-1.3,0.7-2.5,0.7
					C-884.8,4933.4-889.1,4928.3-889.1,4927.6L-889.1,4927.6z"/>
				<path id="path6125" class="st2" d="M-893.7,4927.6c0,0,1.2-0.6,2.4-0.6c2.4-0.3,4.6,3.8,7.2,5.7c0,0-1.3,0.7-2.5,0.7
					C-889.3,4933.4-893.7,4928.3-893.7,4927.6L-893.7,4927.6z"/>
				<path id="path6123" class="st2" d="M-898.2,4927.6c0,0,1.2-0.6,2.4-0.6c2.4-0.3,4.6,3.8,7.2,5.7c0,0-1.3,0.7-2.5,0.7
					C-893.9,4933.4-898.2,4928.3-898.2,4927.6L-898.2,4927.6z"/>
				<path id="path6121" class="st2" d="M-902.8,4927.6c0,0,1.2-0.6,2.4-0.6c2.4-0.3,4.6,3.8,7.2,5.7c0,0-1.3,0.7-2.5,0.7
					C-898.5,4933.4-902.8,4928.3-902.8,4927.6L-902.8,4927.6z"/>
				<path id="path6119" class="st2" d="M-907.4,4927.6c0,0,1.2-0.6,2.4-0.6c2.4-0.3,4.6,3.8,7.2,5.7c0,0-1.3,0.7-2.5,0.7
					C-903.1,4933.4-907.4,4928.3-907.4,4927.6L-907.4,4927.6z"/>
				<path id="path6117" class="st2" d="M-911.9,4927.6c0,0,1.2-0.6,2.4-0.6c2.4-0.3,4.6,3.8,7.2,5.7c0,0-1.3,0.7-2.5,0.7
					C-907.6,4933.4-911.9,4928.3-911.9,4927.6L-911.9,4927.6z"/>
				<path id="path6115" class="st2" d="M-916.5,4927.6c0,0,1.2-0.6,2.4-0.6c2.4-0.3,4.6,3.8,7.2,5.7c0,0-1.3,0.7-2.5,0.7
					C-912.2,4933.4-916.5,4928.3-916.5,4927.6L-916.5,4927.6z"/>
				<path id="path6113" class="st2" d="M-921.1,4927.6c0,0,1.2-0.6,2.4-0.6c2.4-0.3,4.6,3.8,7.2,5.7c0,0-1.3,0.7-2.5,0.7
					C-916.8,4933.4-921.1,4928.3-921.1,4927.6L-921.1,4927.6z"/>
				<path id="path6111" class="st2" d="M-924.8,4927.2c0,0,1-0.3,1.9-0.2c0.3,0,0.5,0.1,0.8,0.2c2,0.8,3.9,4,6.1,5.5
					c0,0-1.3,0.7-2.5,0.7c-1.1,0-2.4-0.8-3.6-1.7l0,0C-924.4,4930-924.9,4927.6-924.8,4927.2z"/>
				<path id="path6109" class="st2" d="M-927.9,4925.4c0,0,1.1,0.1,1.9,0.5c1.2,0.5,1.5,3.3,3.9,5.4c0.5,0.5,1,1,1.5,1.3
					c0,0-0.7,0.3-1.5,0.5l0,0c-0.4,0.1-0.8,0.1-1.3,0c-1.9-0.2-3.6-2.1-4.3-4C-928.4,4927.4-928.1,4925.7-927.9,4925.4
					L-927.9,4925.4z"/>
				<path id="path6107" class="st2" d="M-930.2,4922.7c0,0,1,0.5,1.6,1.1c1.6,1.4-0.4,5,2.8,8.3c0,0-1.7,0.2-3.1-0.6
					c-1.7-0.9-2.5-3.2-2.5-5.2C-931.3,4924.3-930.5,4922.8-930.2,4922.7L-930.2,4922.7z"/>
				<path id="path6105" class="st2" d="M-931.4,4919.4c0,0,0.7,0.8,1,1.6c0.9,1.7-2,4.6-0.3,8.7c0,0-1.6-0.4-2.7-1.6
					c-1.2-1.4-1.3-3.9-0.5-5.8C-933,4920.4-931.7,4919.4-931.4,4919.4z"/>
				<path id="path6103" class="st2" d="M-931.4,4915.1c0,0,0.6,1.2,0.6,2.4c0,0.3,0,0.5-0.1,0.8c-0.7,1.5-3.5,3.6-3.4,7.4
					c0,0-1.4-1-1.9-2.5c-0.5-1.5,0-3.4,1.1-4.9l0,0C-933.7,4916.6-931.8,4915.1-931.4,4915.1L-931.4,4915.1z"/>
				<path id="path6101" class="st2" d="M-931.4,4910.6c0,0,0.6,1.2,0.6,2.4c0.2,1.8-2.1,3.5-4,5.4c-0.6,0.7-1.1,1.4-1.4,2.3
					c0,0-0.6-1-0.8-2.3l0,0c0-0.2-0.1-0.4-0.1-0.7C-937.1,4914.9-932.1,4910.6-931.4,4910.6z"/>
				<path id="path6099" class="st2" d="M-931.4,4906c0,0,0.6,1.2,0.6,2.4c0.3,2.4-3.8,4.6-5.7,7.2c0,0-0.7-1.3-0.7-2.5
					C-937.1,4910.3-932.1,4906-931.4,4906z"/>
				<path id="path6097" class="st2" d="M-931.4,4901.4c0,0,0.6,1.2,0.6,2.4c0.3,2.4-3.8,4.6-5.7,7.2c0,0-0.7-1.3-0.7-2.5
					C-937.1,4905.8-932.1,4901.4-931.4,4901.4z"/>
				<path id="path6095" class="st2" d="M-931.4,4896.9c0,0,0.6,1.2,0.6,2.4c0.3,2.4-3.8,4.6-5.7,7.2c0,0-0.7-1.3-0.7-2.5
					C-937.1,4901.2-932.1,4896.9-931.4,4896.9z"/>
				<path id="path6093" class="st2" d="M-931.4,4892.3c0,0,0.6,1.2,0.6,2.4c0.3,2.4-3.8,4.6-5.7,7.2c0,0-0.7-1.3-0.7-2.5
					C-937.1,4896.6-932.1,4892.3-931.4,4892.3z"/>
				<path id="path6091" class="st2" d="M-931.4,4887.7c0,0,0.6,1.2,0.6,2.4c0.3,2.4-3.8,4.6-5.7,7.2c0,0-0.7-1.3-0.7-2.5
					C-937.1,4892-932.1,4887.7-931.4,4887.7z"/>
				<path id="path6089" class="st2" d="M-931.4,4883.2c0,0,0.6,1.2,0.6,2.4c0.3,2.4-3.8,4.6-5.7,7.2c0,0-0.7-1.3-0.7-2.5
					C-937.1,4887.5-932.1,4883.2-931.4,4883.2z"/>
				<path id="path6087" class="st2" d="M-931.4,4878.6c0,0,0.6,1.2,0.6,2.4c0.3,2.4-3.8,4.6-5.7,7.2c0,0-0.7-1.3-0.7-2.5
					C-937.1,4882.9-932.1,4878.6-931.4,4878.6z"/>
				<path id="path6085" class="st2" d="M-931.4,4874c0,0,0.6,1.2,0.6,2.4c0.3,2.4-3.8,4.6-5.7,7.2c0,0-0.7-1.3-0.7-2.5
					C-937.1,4878.3-932.1,4874-931.4,4874z"/>
				<path id="path6083" class="st2" d="M-931.4,4869.4c0,0,0.6,1.2,0.6,2.4c0.3,2.4-3.8,4.6-5.7,7.2c0,0-0.7-1.3-0.7-2.5
					C-937.1,4873.8-932.1,4869.4-931.4,4869.4z"/>
				<path id="path6081" class="st2" d="M-931.4,4865.1c0,0,0.2,0.3,0.3,0.6c0.1,0.4,0.3,1,0.3,1.6c0.3,2.4-3.8,4.6-5.7,7.2
					c0,0-0.7-1.3-0.7-2.5c0-2,2.7-4.9,4.4-6.3C-932.1,4865.2-931.6,4865.1-931.4,4865.1L-931.4,4865.1z"/>
				<path id="path6079" class="st2" d="M-930.4,4861.7c0,0,0.1,1.1-0.1,1.9c-0.1,0.7-0.8,1.2-1.8,2.1c-1.3,1.3-3.1,2.7-4.2,4.2
					c0,0-0.7-1.3-0.7-2.5c0-0.5,0.2-1.1,0.5-1.7c0.7-1.7,2.1-2.9,3.5-3.5C-931.8,4861.6-930.7,4861.6-930.4,4861.7L-930.4,4861.7z"
					/>
				<path id="path6077" class="st2" d="M-928.2,4858.9c0,0-0.3,1.1-0.8,1.8c-1.4,2.5-4.6,0-7.5,4.6c0,0-0.6-1.7-0.1-3.2
					c0.5-1.8,2.6-3.2,4.6-3.6C-930,4858.1-928.4,4858.6-928.2,4858.9L-928.2,4858.9z"/>
				<path id="path6075" class="st2" d="M-925.2,4857c0,0-0.6,0.9-1.3,1.4c-1.6,1.4-5-1-8.6,1.6c0,0,0.1-1.7,1-3
					c1.1-1.5,3.5-2,5.6-1.7C-926.6,4855.6-925.3,4856.6-925.2,4857z"/>
				<path id="path6073" class="st2" d="M-921.8,4856.4c0,0-0.9,0.5-1.7,0.7c-1.9,0.6-4.1-2.7-8.6-1.6c0,0,0.7-1.6,2-2.4
					c1.6-1,4-0.7,5.8,0.4C-922.5,4854.5-921.7,4856.1-921.8,4856.4z"/>
				<path id="path6066" class="st2" d="M-917.5,4856.5c0,0-2.1,0.7-2.9,0.4c-2.1-0.5-2.4-3.8-7.2-4.3c0,0,1.2-1.2,2.8-1.5
					c1.9-0.4,4.1,0.8,5.4,2.6C-918.2,4855.4-917.2,4856.1-917.5,4856.5L-917.5,4856.5z"/>
			</g>
			<g id="g6727">
			</g>
		</g>
	</g>
</g>
</svg>
