<!-- Generator: Adobe Illustrator 19.0.0, SVG Export Plug-In  -->
<svg version="1.1"
	 xmlns="http://www.w3.org/2000/svg" xmlns:xlink="http://www.w3.org/1999/xlink" xmlns:a="http://ns.adobe.com/AdobeSVGViewerExtensions/3.0/"
	 x="0px" y="0px" width="121.1px" height="186px" viewBox="0 0 121.1 186" enable-background="new 0 0 121.1 186"
	 xml:space="preserve">
<defs>
</defs>
<g>
	<rect x="23.8" y="8" fill="#BCBCBC" width="19.1" height="5.2"/>
	<rect x="83.8" y="0" fill="#AEADAE" width="15.9" height="13.1"/>
	<path fill="#2B2B2B" stroke="#2B2B2B" stroke-width="2" stroke-miterlimit="10" d="M114.4,185H6.7c-3.1,0-5.7-2.5-5.7-5.7V18.8
		c0-3.1,2.5-5.7,5.7-5.7h107.7c3.1,0,5.7,2.5,5.7,5.7v160.6C120.1,182.5,117.5,185,114.4,185z"/>
	<path fill="#CC9131" d="M120.1,79H1V18.5c0-2.9,2.4-5.3,5.3-5.3h108.4c2.9,0,5.3,2.4,5.3,5.3V79z"/>
	<rect x="20.9" y="0" fill="#AEADAE" width="24.9" height="8"/>
	<rect x="32.8" fill="#D3D3D3" width="1" height="8"/>
	<rect x="23.3" fill="#D3D3D3" width="1" height="8"/>
	<rect x="42.4" fill="#D3D3D3" width="1" height="8"/>
</g>
</svg>
