<!-- Generator: Adobe Illustrator 19.0.0, SVG Export Plug-In  -->
<svg version="1.1"
	 xmlns="http://www.w3.org/2000/svg" xmlns:xlink="http://www.w3.org/1999/xlink" xmlns:a="http://ns.adobe.com/AdobeSVGViewerExtensions/3.0/"
	 x="0px" y="0px" width="157.3px" height="243.5px" viewBox="0 0 157.3 243.5" enable-background="new 0 0 157.3 243.5"
	 xml:space="preserve">
<defs>
</defs>
<g id="Lamp_1_">
	<g>
		<g>
			<path fill="#161616" d="M109.5,215.9c0,0,47.8-97.3,47.8-137.3C157.3,35.2,122.1,0,78.6,0C35.2,0,0,35.2,0,78.6
				C0,118,54.1,216,54.1,216L109.5,215.9z M89.2,208h-9C72.3,170.8,64.8,133.6,58.8,96c6.1,8.2,14.1,12,24.4,1.5
				c5.3-5.3,8.7-13.1,11.5-20.5C92.8,120.7,91,164.3,89.2,208z M78.6,8c39,0,70.7,31.7,70.7,70.7c0,32.9-35.6,110-44.8,129.3l-9.1,0
				c2.2-51.1,4.3-102.2,6.4-153.3c0.2-4.4-4.5,5.3-5.3,8.1c-1.5,6-1.9,4.7-4,10.6c-2.7,7.5-9,17.7-13.8,24
				c-11.3,14.7-21.7-11.1-23.8-16.3c-1.4-3.5-6-6.4-5.6-3.9c6.1,43.9,14.9,87.4,24.1,130.8l-14.5,0C42.7,178.2,8,107.8,8,78.6
				C8,39.7,39.7,8,78.6,8z"/>
			<path fill="#161616" d="M109,225.5H55.2c-1.6,0-3-1.4-3-3v-1.1c0-1.6,1.4-3,3-3H109c1.7,0,3,1.4,3,3v1.1
				C112,224.2,110.7,225.5,109,225.5z"/>
			<path fill="#161616" d="M105.6,234.5H58.6c-1.7,0-3-1.3-3-3v-1.1c0-1.6,1.3-3,3-3h47.1c1.7,0,3,1.4,3,3v1.1
				C108.6,233.1,107.3,234.5,105.6,234.5z"/>
			<path fill="#161616" d="M99.1,243.5H65.1c-1.6,0-3-1.3-3-3v-1.1c0-1.6,1.3-3,3-3h34.1c1.7,0,3,1.4,3,3v1.1
				C102.1,242.1,100.8,243.5,99.1,243.5z"/>
		</g>
	</g>
	<g>
		<defs>
			<polygon id="SVGID_1_" points="46.4,75.5 47.1,87.5 53.8,140.5 69.5,208 99.8,208 104.9,108.8 104.5,91.5 108.8,78.9 105.4,65.6 
				106.9,51 			"/>
		</defs>
		<clipPath id="SVGID_2_">
			<use xlink:href="#SVGID_1_"  overflow="visible"/>
		</clipPath>
		<g clip-path="url(#SVGID_2_)">
			<g>
				<linearGradient id="SVGID_3_" gradientUnits="userSpaceOnUse" x1="0" y1="107.9889" x2="157.3073" y2="107.9889">
					<stop  offset="0.2172" style="stop-color:#FFFFFF"/>
					<stop  offset="0.4168" style="stop-color:#EF392C"/>
					<stop  offset="0.539" style="stop-color:#FFF200"/>
					<stop  offset="0.6044" style="stop-color:#ED1C24"/>
					<stop  offset="0.7577" style="stop-color:#FFFFFF"/>
				</linearGradient>
				<path fill="url(#SVGID_3_)" d="M109.5,215.9c0,0,47.8-97.3,47.8-137.3C157.3,35.2,122.1,0,78.6,0C35.2,0,0,35.2,0,78.6
					C0,118,54.1,216,54.1,216L109.5,215.9z M89.2,208h-9C72.3,170.8,64.8,133.6,58.8,96c6.1,8.2,14.1,12,24.4,1.5
					c5.3-5.3,8.7-13.1,11.5-20.5C92.8,120.7,91,164.3,89.2,208z M78.6,8c39,0,70.7,31.7,70.7,70.7c0,32.9-35.6,110-44.8,129.3
					l-9.1,0c2.2-51.1,4.3-102.2,6.4-153.3c0.2-4.4-4.5,5.3-5.3,8.1c-1.5,6-1.9,4.7-4,10.6c-2.7,7.5-9,17.7-13.8,24
					c-11.3,14.7-21.7-11.1-23.8-16.3c-1.4-3.5-6-6.4-5.6-3.9c6.1,43.9,14.9,87.4,24.1,130.8l-14.5,0C42.7,178.2,8,107.8,8,78.6
					C8,39.7,39.7,8,78.6,8z"/>
				<linearGradient id="SVGID_4_" gradientUnits="userSpaceOnUse" x1="52.1704" y1="221.9739" x2="112.0457" y2="221.9739">
					<stop  offset="0" style="stop-color:#FFDE17;stop-opacity:0.5"/>
					<stop  offset="1" style="stop-color:#FFFFFF"/>
				</linearGradient>
				<path fill="url(#SVGID_4_)" d="M109,225.5H55.2c-1.6,0-3-1.4-3-3v-1.1c0-1.6,1.4-3,3-3H109c1.7,0,3,1.4,3,3v1.1
					C112,224.2,110.7,225.5,109,225.5z"/>
				<linearGradient id="SVGID_5_" gradientUnits="userSpaceOnUse" x1="55.5796" y1="230.9536" x2="108.6366" y2="230.9536">
					<stop  offset="0" style="stop-color:#FFDE17;stop-opacity:0.5"/>
					<stop  offset="1" style="stop-color:#FFFFFF"/>
				</linearGradient>
				<path fill="url(#SVGID_5_)" d="M105.6,234.5H58.6c-1.7,0-3-1.3-3-3v-1.1c0-1.6,1.3-3,3-3h47.1c1.7,0,3,1.4,3,3v1.1
					C108.6,233.1,107.3,234.5,105.6,234.5z"/>
				<linearGradient id="SVGID_6_" gradientUnits="userSpaceOnUse" x1="62.0796" y1="239.9536" x2="102.1365" y2="239.9536">
					<stop  offset="0" style="stop-color:#FFDE17;stop-opacity:0.5"/>
					<stop  offset="1" style="stop-color:#FFFFFF"/>
				</linearGradient>
				<path fill="url(#SVGID_6_)" d="M99.1,243.5H65.1c-1.6,0-3-1.3-3-3v-1.1c0-1.6,1.3-3,3-3h34.1c1.7,0,3,1.4,3,3v1.1
					C102.1,242.1,100.8,243.5,99.1,243.5z"/>
			</g>
		</g>
	</g>
</g>
</svg>
